<?xml version="1.0" standalone="no"?>
<!DOCTYPE svg PUBLIC "-//W3C//DTD SVG 20010904//EN"
 "http://www.w3.org/TR/2001/REC-SVG-20010904/DTD/svg10.dtd">
<svg version="1.0" xmlns="http://www.w3.org/2000/svg"
 width="107.000000pt" height="40.000000pt" viewBox="0 0 1007.000000 398.000000"
 preserveAspectRatio="xMidYMid meet">

<g transform="translate(0.000000,398.000000) scale(0.100000,-0.100000)"
fill="#FF330D" stroke="none">
<path d="M6000 3590 c-234 -41 -495 -152 -734 -311 -163 -108 -288 -213 -437
-365 -469 -482 -707 -1018 -686 -1544 7 -160 24 -236 79 -350 33 -70 56 -100
127 -170 92 -91 178 -142 296 -175 90 -26 344 -32 463 -11 252 44 564 186 856
390 44 31 81 54 83 52 2 -2 -23 -130 -56 -285 -78 -362 -79 -373 -51 -439 73
-169 335 -221 446 -89 54 64 58 83 65 357 4 152 13 298 23 360 50 320 118 610
186 785 89 231 92 244 88 317 -3 58 -8 72 -32 97 -42 44 -103 61 -215 61 -116
0 -160 -11 -206 -51 -38 -34 -44 -51 -75 -212 -48 -252 -104 -360 -252 -483
-259 -215 -589 -384 -858 -439 -114 -23 -269 -18 -325 12 -149 79 -198 282
-139 573 85 417 418 901 834 1211 261 194 457 279 647 279 133 0 165 -24 242
-183 38 -80 65 -97 149 -97 49 0 65 5 98 29 52 38 85 75 126 141 163 258 64
474 -249 544 -101 23 -354 20 -493 -4z"/>
<path d="M1596 3475 c-352 -57 -675 -225 -903 -468 -77 -82 -115 -137 -159
-230 -83 -175 -84 -380 -2 -547 39 -81 155 -199 248 -253 86 -49 304 -134 630
-245 393 -134 472 -167 539 -228 52 -46 65 -80 52 -131 -24 -89 -157 -193
-371 -289 -239 -108 -463 -164 -655 -164 -128 0 -214 15 -335 60 -59 21 -102
30 -144 30 -58 0 -61 -1 -107 -49 -61 -63 -82 -126 -77 -226 3 -63 8 -80 34
-117 38 -54 117 -110 191 -134 50 -16 88 -19 273 -19 179 1 237 5 345 24 523
93 1062 379 1255 668 71 106 93 186 88 316 -3 86 -8 111 -33 162 -61 129 -228
257 -467 359 -103 43 -158 62 -573 195 -288 92 -399 155 -452 253 -26 49 -24
170 4 223 75 141 298 285 550 352 87 24 117 27 273 27 151 1 182 -2 228 -19
108 -40 168 -120 179 -241 l6 -64 57 0 c120 0 233 58 281 145 41 73 55 185 35
265 -20 77 -51 125 -121 188 -73 64 -147 104 -260 138 -84 25 -105 27 -305 30
-152 2 -241 -1 -304 -11z"/>
<path d="M8595 3464 c-99 -51 -166 -154 -558 -859 -249 -448 -379 -666 -645
-1077 -326 -503 -422 -670 -422 -729 0 -47 27 -94 81 -143 69 -62 123 -86 190
-85 112 1 157 38 284 229 81 122 265 435 265 451 0 4 16 1 35 -7 54 -22 110
-17 260 26 275 79 776 181 898 184 l69 1 27 -75 c39 -106 151 -349 207 -450
141 -257 295 -410 442 -441 109 -22 228 30 282 125 25 43 30 62 30 121 0 86
-10 105 -123 223 -102 107 -156 178 -234 307 -175 290 -335 686 -614 1515
-117 345 -120 357 -113 417 3 35 3 89 -1 120 -6 50 -13 63 -45 94 -21 20 -60
44 -86 53 -62 21 -189 21 -229 0z m153 -1160 c78 -235 141 -428 139 -430 -8
-8 -477 -97 -642 -122 l-180 -27 264 502 c145 277 267 503 270 503 3 0 70
-192 149 -426z"/>
<path d="M3491 3455 c-56 -25 -158 -103 -180 -138 -25 -42 -37 -93 -62 -281
-11 -83 -26 -187 -34 -231 -39 -209 -169 -1189 -195 -1466 -16 -166 -9 -451
14 -546 34 -143 102 -203 229 -203 84 0 144 26 208 90 75 75 79 109 49 430
-20 205 -8 506 29 750 17 113 38 257 46 320 25 190 42 279 127 635 71 301 80
347 75 403 -6 64 -43 160 -75 195 -48 54 -158 73 -231 42z"/>
</g>
</svg>
